<?xml version="1.0" standalone="no"?>
<!DOCTYPE svg PUBLIC "-//W3C//DTD SVG 20010904//EN"
 "http://www.w3.org/TR/2001/REC-SVG-20010904/DTD/svg10.dtd">
<svg version="1.0" xmlns="http://www.w3.org/2000/svg"
 width="192.000000pt" height="192.000000pt" viewBox="0 0 192.000000 192.000000"
 preserveAspectRatio="xMidYMid meet">
<metadata>
Created by potrace 1.14, written by Peter Selinger 2001-2017
</metadata>
<g transform="translate(0.000000,192.000000) scale(0.100000,-0.100000)"
fill="#000000" stroke="none">
<path d="M810 1908 c-118 -19 -251 -68 -354 -131 -221 -136 -390 -381 -442
-642 -10 -55 -13 -249 -3 -315 56 -397 370 -723 774 -805 54 -11 259 -13 320
-4 413 66 735 388 804 804 13 81 7 275 -12 356 -88 373 -384 658 -762 734 -51
11 -267 13 -325 3z m280 -269 c210 -40 395 -185 484 -382 45 -97 58 -155 61
-265 16 -565 -625 -898 -1080 -562 -50 37 -138 127 -154 159 -6 11 11 53 59
141 56 102 67 130 64 159 -3 19 -7 37 -9 39 -2 3 0 13 6 23 6 11 6 19 0 19
-15 0 -21 -28 -15 -73 6 -43 -8 -75 -101 -240 l-23 -39 -13 23 c-107 192 -114
424 -19 626 129 276 435 430 740 372z"/>
<path d="M940 1600 c0 -11 4 -20 8 -20 4 0 8 9 8 20 0 11 -4 20 -8 20 -4 0 -8
-9 -8 -20z"/>
<path d="M871 1546 c-8 -10 -9 -16 -1 -21 5 -3 10 -1 10 5 0 6 10 15 23 20 22
9 22 9 1 9 -12 1 -27 -5 -33 -13z"/>
<path d="M948 1553 c6 -2 18 -2 25 0 6 3 1 5 -13 5 -14 0 -19 -2 -12 -5z"/>
<path d="M940 1510 c0 -11 4 -20 8 -20 4 0 8 9 8 20 0 11 -4 20 -8 20 -4 0 -8
-9 -8 -20z"/>
<path d="M1004 1493 c4 -5 17 -8 29 -8 22 0 58 -61 126 -215 67 -151 113 -245
123 -251 6 -4 27 -5 47 -3 52 5 70 -3 66 -29 -3 -11 -7 -39 -10 -62 -3 -22 -8
-47 -11 -57 -3 -9 5 -33 17 -55 11 -21 30 -55 42 -75 11 -21 24 -38 28 -38 5
0 -10 34 -33 76 l-40 75 11 75 c16 111 20 104 -53 104 l-63 0 -33 73 c-18 39
-49 106 -67 147 -114 251 -113 250 -151 250 -20 0 -32 -3 -28 -7z"/>
<path d="M812 1428 c-21 -32 -22 -45 -4 -34 10 6 34 66 27 66 -1 0 -12 -15
-23 -32z"/>
<path d="M779 1232 c-60 -124 -108 -226 -106 -228 3 -3 143 -7 203 -5 29 1 30
2 29 49 0 44 -2 47 -28 50 -15 2 -27 6 -27 10 0 10 101 212 105 212 3 0 11
-15 19 -32 8 -18 30 -68 50 -111 31 -66 33 -78 19 -76 -35 3 -40 -2 -41 -45
-2 -35 2 -46 15 -50 20 -6 213 -5 213 1 0 2 -15 36 -34 76 -18 40 -55 117 -81
172 -25 55 -58 124 -73 153 l-27 53 -64 -2 -64 -2 -108 -225z"/>
<path d="M737 1285 c-9 -19 -13 -35 -9 -35 5 0 16 16 25 35 9 19 13 35 9 35
-5 0 -16 -16 -25 -35z"/>
<path d="M669 1153 c-15 -41 -5 -48 14 -9 9 20 12 36 7 36 -6 0 -15 -12 -21
-27z"/>
<path d="M535 1037 c-17 -40 -20 -67 -6 -51 12 13 32 76 26 82 -3 3 -12 -11
-20 -31z"/>
<path d="M607 1036 c-4 -9 -11 -15 -16 -11 -5 3 -12 1 -15 -4 -10 -16 10 -21
29 -7 10 7 16 19 13 26 -3 10 -6 9 -11 -4z"/>
<path d="M440 1019 c0 -5 17 -9 37 -9 20 0 34 3 30 6 -10 10 -67 12 -67 3z"/>
<path d="M567 972 c-25 -5 -21 -45 8 -74 l24 -25 -20 -38 c-12 -21 -40 -68
-63 -104 -72 -112 -80 -126 -82 -138 -2 -9 16 -13 61 -13 74 0 85 9 137 98 33
59 52 72 73 51 12 -12 5 -29 -45 -109 -32 -52 -66 -105 -74 -117 -23 -31 -20
-53 7 -54 31 -1 119 -1 139 0 11 1 41 36 73 87 49 75 59 85 78 79 81 -25 85
13 7 67 -30 21 -64 42 -75 47 -11 5 -39 23 -63 40 l-43 32 22 37 c30 50 41 62
67 67 30 5 29 -22 -3 -69 -28 -42 -30 -52 -12 -70 17 -16 103 -66 115 -66 6 0
19 15 29 33 15 25 20 54 21 135 1 75 -1 102 -11 103 -31 3 -354 4 -370 1z"/>
<path d="M987 969 c-22 -13 -16 -189 8 -233 11 -20 24 -36 30 -36 22 0 120 65
123 82 2 9 -8 35 -22 57 -30 47 -32 57 -12 64 20 8 57 -23 80 -67 23 -43 29
-37 -112 -123 -97 -58 -106 -67 -100 -102 3 -20 5 -20 32 -6 15 8 33 15 40 15
6 0 33 -36 60 -81 28 -45 56 -83 63 -86 17 -7 133 -10 156 -5 28 7 21 27 -48
136 -77 124 -82 135 -64 147 25 16 34 9 79 -66 30 -49 54 -77 70 -82 33 -10
120 -5 120 8 0 10 -124 213 -147 240 -19 23 -16 52 7 67 22 14 28 71 8 73 -59
5 -361 3 -371 -2z"/>
</g>
</svg>
